<svg xmlns="http://www.w3.org/2000/svg" viewBox="0 0 148.41 148.41"><defs><style>.cls-1{fill:#dc4a94;}.cls-2{fill:#29235c;}.cls-3{fill:#fff;}</style></defs><title>cam_icon_stage</title><g id="Layer_2" data-name="Layer 2"><g id="Layer_1-2" data-name="Layer 1"><g id="Layer_2-2" data-name="Layer 2"><g id="Layer_1-2-2" data-name="Layer 1-2"><rect class="cls-1" width="148.41" height="148.41" rx="19.41" ry="19.41"/><rect class="cls-2" x="11.99" y="25.69" width="125.62" height="90.53" rx="14.47" ry="14.47"/><rect class="cls-2" x="51.73" y="14.16" width="45.39" height="45.39" rx="7.46" ry="7.46"/><circle class="cls-1" cx="75.11" cy="70.83" r="40.12"/><circle class="cls-2" cx="74.88" cy="70.92" r="36.03"/><circle class="cls-1" cx="92.59" cy="48.47" r="7.92"/><circle class="cls-1" cx="79.09" cy="61.85" r="11.96"/><circle class="cls-1" cx="92.29" cy="48.89" r="7.92"/><rect class="cls-1" x="56.13" y="17.35" width="11.29" height="7.85" rx="3.92" ry="3.92"/><path class="cls-3" d="M34.64,133.69a2.4,2.4,0,0,1-.91,2,3.93,3.93,0,0,1-2.52.72,5.92,5.92,0,0,1-2.63-.56V134a10.7,10.7,0,0,0,1.59.59,4.67,4.67,0,0,0,1.19.17,1.68,1.68,0,0,0,1-.25.85.85,0,0,0,.35-.74.81.81,0,0,0-.15-.49,1.7,1.7,0,0,0-.45-.41,11.59,11.59,0,0,0-1.2-.63,5.67,5.67,0,0,1-1.28-.77,2.88,2.88,0,0,1-.68-.86,2.43,2.43,0,0,1-.25-1.14,2.4,2.4,0,0,1,.83-1.94,3.47,3.47,0,0,1,2.31-.71,5.45,5.45,0,0,1,1.38.17,9.56,9.56,0,0,1,1.37.48L34,129a9.2,9.2,0,0,0-1.23-.42,4,4,0,0,0-1-.12,1.27,1.27,0,0,0-.86.26.86.86,0,0,0-.3.68.84.84,0,0,0,.12.45,1.35,1.35,0,0,0,.38.38,12,12,0,0,0,1.25.65,5,5,0,0,1,1.78,1.25A2.44,2.44,0,0,1,34.64,133.69Z"/><path class="cls-3" d="M41.21,136.26h-2v-7.64H36.72V127h7v1.64H41.21Z"/><path class="cls-3" d="M52.15,136.26,51.48,134H48.1l-.67,2.21H45.3l3.28-9.32H51l3.29,9.32ZM51,132.4,50,129c-.08-.26-.13-.47-.17-.62q-.21.81-1.2,4Z"/><path class="cls-3" d="M60.28,131.05H64v4.81a10.34,10.34,0,0,1-1.69.41,11,11,0,0,1-1.62.12,4.09,4.09,0,0,1-3.21-1.23,5.14,5.14,0,0,1-1.11-3.54,4.67,4.67,0,0,1,1.29-3.5,4.88,4.88,0,0,1,3.56-1.26,6.89,6.89,0,0,1,2.75.57L63.29,129a4.67,4.67,0,0,0-2.11-.51,2.61,2.61,0,0,0-2,.86,3.32,3.32,0,0,0-.77,2.3A3.7,3.7,0,0,0,59,134a2.14,2.14,0,0,0,1.8.8,6.34,6.34,0,0,0,1.25-.13v-1.94H60.28Z"/><path class="cls-3" d="M72.83,136.26H67.48V127h5.34v1.61H69.45v2h3.14v1.61H69.45v2.39h3.38Z"/><path class="cls-3" d="M86.06,127h2l-3.16,9.28H82.75L79.6,127h2l1.75,5.52q.15.49.3,1.14t.19.9a16.35,16.35,0,0,1,.48-2Z"/><path class="cls-3" d="M90.53,136.26V127h2v9.28Z"/><path class="cls-3" d="M101.49,136.26H96.14V127h5.34v1.61H98.11v2h3.14v1.61H98.11v2.39h3.38Z"/><path class="cls-3" d="M113.78,136.26h-2.24l-1.26-4.87q-.07-.26-.24-1.08a10.73,10.73,0,0,1-.19-1.09,5.18,5.18,0,0,1-.19,1.1q-.19.76-.24,1.08l-1.25,4.86h-2.23L103.57,127h1.94l1.19,5.07q.31,1.4.45,2.43a5.75,5.75,0,0,1,.17-1.12l.26-1.18,1.35-5.2h1.86l1.35,5.2q.09.35.22,1.07t.2,1.23q.06-.5.2-1.24L113,132l1.2-5h1.94Z"/></g></g></g></g></svg>