<?xml version="1.0" encoding="utf-8"?>
<!-- Generator: Adobe Illustrator 21.1.0, SVG Export Plug-In . SVG Version: 6.00 Build 0)  -->
<svg version="1.1" id="Layer_1" xmlns="http://www.w3.org/2000/svg" xmlns:xlink="http://www.w3.org/1999/xlink" x="0px" y="0px"
	 viewBox="0 0 148.4 148.4" style="enable-background:new 0 0 148.4 148.4;" xml:space="preserve">
<style type="text/css">
	.st0{fill:#DC4A94;}
	.st1{fill:#29235C;}
	.st2{fill:#FFFFFF;}
</style>
<title>cam_icon_stage_1</title>
<g id="Layer_2">
	<g id="Layer_1-2">
		<path class="st0" d="M19.4,0H129c10.7,0,19.4,8.7,19.4,19.4V129c0,10.7-8.7,19.4-19.4,19.4H19.4C8.7,148.4,0,139.7,0,129V19.4
			C0,8.7,8.7,0,19.4,0z"/>
		<path class="st1" d="M26.5,25.7h96.7c8,0,14.5,6.5,14.5,14.5v61.6c0,8-6.5,14.5-14.5,14.5H26.5c-8,0-14.5-6.5-14.5-14.5V40.2
			C12,32.2,18.5,25.7,26.5,25.7z"/>
		<path class="st1" d="M59.2,14.2h30.5c4.1,0,7.5,3.3,7.5,7.5v30.5c0,4.1-3.3,7.5-7.5,7.5H59.2c-4.1,0-7.5-3.3-7.5-7.5V21.6
			C51.7,17.5,55.1,14.2,59.2,14.2z"/>
		<circle class="st0" cx="75.1" cy="70.8" r="40.1"/>
		<circle class="st1" cx="74.9" cy="70.9" r="36"/>
		<circle class="st0" cx="92.6" cy="48.5" r="7.9"/>
		<circle class="st0" cx="79.1" cy="61.8" r="12"/>
		<circle class="st0" cx="92.3" cy="48.9" r="7.9"/>
		<path class="st0" d="M60.1,17.3h3.4c2.2,0,3.9,1.8,3.9,3.9v0c0,2.2-1.8,3.9-3.9,3.9h-3.4c-2.2,0-3.9-1.8-3.9-3.9v0
			C56.1,19.1,57.9,17.3,60.1,17.3z"/>
		<path class="st2" d="M34.6,133.7c0,0.8-0.3,1.5-0.9,2c-0.7,0.5-1.6,0.8-2.5,0.7c-0.9,0-1.8-0.2-2.6-0.6V134c0.5,0.2,1,0.4,1.6,0.6
			c0.4,0.1,0.8,0.2,1.2,0.2c0.4,0,0.7-0.1,1-0.2c0.2-0.2,0.4-0.4,0.3-0.7c0-0.2,0-0.3-0.2-0.5c-0.1-0.2-0.3-0.3-0.5-0.4
			c-0.4-0.2-0.8-0.4-1.2-0.6c-0.5-0.2-0.9-0.5-1.3-0.8c-0.3-0.2-0.5-0.5-0.7-0.9c-0.2-0.4-0.3-0.7-0.2-1.1c0-0.7,0.3-1.5,0.8-1.9
			c0.7-0.5,1.5-0.8,2.3-0.7c0.5,0,0.9,0.1,1.4,0.2c0.5,0.1,0.9,0.3,1.4,0.5L34,129c-0.4-0.2-0.8-0.3-1.2-0.4c-0.3-0.1-0.7-0.1-1-0.1
			c-0.3,0-0.6,0.1-0.9,0.3c-0.2,0.2-0.3,0.4-0.3,0.7c0,0.2,0,0.3,0.1,0.4c0.1,0.2,0.2,0.3,0.4,0.4c0.4,0.2,0.8,0.5,1.2,0.6
			c0.7,0.3,1.3,0.7,1.8,1.2C34.5,132.6,34.7,133.1,34.6,133.7z"/>
		<path class="st2" d="M41.2,136.3h-2v-7.6h-2.5V127h7v1.6h-2.5V136.3z"/>
		<path class="st2" d="M52.2,136.3l-0.7-2.2h-3.4l-0.7,2.2h-2.1l3.3-9.3H51l3.3,9.3H52.2z M51,132.4c-0.6-2-1-3.1-1-3.4
			c-0.1-0.3-0.1-0.5-0.2-0.6c-0.1,0.5-0.5,1.9-1.2,4L51,132.4z"/>
		<path class="st2" d="M60.3,131H64v4.8c-0.6,0.2-1.1,0.3-1.7,0.4c-0.5,0.1-1.1,0.1-1.6,0.1c-1.2,0.1-2.4-0.4-3.2-1.2
			c-0.8-1-1.2-2.3-1.1-3.5c-0.1-1.3,0.4-2.6,1.3-3.5c1-0.9,2.3-1.3,3.6-1.3c0.9,0,1.9,0.2,2.8,0.6l-0.7,1.6
			c-0.7-0.3-1.4-0.5-2.1-0.5c-0.8,0-1.5,0.3-2,0.9c-0.5,0.6-0.8,1.5-0.8,2.3c-0.1,0.8,0.1,1.7,0.6,2.3c0.4,0.5,1.1,0.8,1.8,0.8
			c0.4,0,0.8,0,1.2-0.1v-1.9h-1.8V131z"/>
		<path class="st2" d="M72.8,136.3h-5.3V127h5.3v1.6h-3.4v2h3.1v1.6h-3.1v2.4h3.4L72.8,136.3z"/>
		<path class="st2" d="M86.1,127h2l-3.2,9.3h-2.1l-3.2-9.3h2l1.8,5.5c0.1,0.3,0.2,0.7,0.3,1.1c0.1,0.4,0.2,0.7,0.2,0.9
			c0.1-0.7,0.3-1.3,0.5-2L86.1,127z"/>
		<path class="st2" d="M90.5,136.3V127h2v9.3L90.5,136.3z"/>
		<path class="st2" d="M101.5,136.3h-5.3V127h5.3v1.6h-3.4v2h3.1v1.6h-3.1v2.4h3.4V136.3z"/>
		<path class="st2" d="M113.8,136.3h-2.2l-1.3-4.9c0-0.2-0.1-0.5-0.2-1.1c-0.1-0.5-0.2-0.9-0.2-1.1c0,0.2-0.1,0.6-0.2,1.1
			c-0.1,0.5-0.2,0.9-0.2,1.1l-1.2,4.9h-2.2l-2.4-9.3h1.9l1.2,5.1c0.2,0.9,0.4,1.7,0.4,2.4c0-0.2,0.1-0.6,0.2-1.1
			c0.1-0.5,0.2-0.9,0.3-1.2l1.3-5.2h1.9l1.3,5.2c0.1,0.2,0.1,0.6,0.2,1.1c0.1,0.5,0.2,0.9,0.2,1.2c0-0.3,0.1-0.7,0.2-1.2
			c0.1-0.5,0.2-0.9,0.2-1.3l1.2-5h1.9L113.8,136.3z"/>
	</g>
</g>
</svg>
