<svg xmlns="http://www.w3.org/2000/svg" viewBox="0 0 148.41 148.41"><defs><style>.cls-1{fill:#009fe3;}.cls-2{fill:#29235c;}.cls-3{fill:#fff;}</style></defs><title>cam_icon_crowd</title><g id="Layer_2" data-name="Layer 2"><g id="Layer_1-2" data-name="Layer 1"><g id="Layer_2-2" data-name="Layer 2"><g id="Layer_1-2-2" data-name="Layer 1-2"><rect class="cls-1" width="148.41" height="148.41" rx="19.41" ry="19.41"/><rect class="cls-2" x="11.99" y="25.69" width="125.62" height="90.53" rx="14.47" ry="14.47"/><rect class="cls-2" x="51.73" y="14.16" width="45.39" height="45.39" rx="7.46" ry="7.46"/><circle class="cls-1" cx="75.11" cy="70.83" r="40.12"/><circle class="cls-2" cx="74.88" cy="70.92" r="36.03"/><circle class="cls-1" cx="79.39" cy="61.43" r="11.96"/><circle class="cls-1" cx="92.59" cy="48.47" r="7.92"/><rect class="cls-1" x="56.13" y="17.35" width="11.29" height="7.85" rx="3.92" ry="3.92"/><path class="cls-3" d="M32.1,128.49a2,2,0,0,0-1.72.83,3.88,3.88,0,0,0-.61,2.33q0,3.11,2.33,3.1a7.36,7.36,0,0,0,2.37-.49v1.65a6.56,6.56,0,0,1-2.55.48,3.89,3.89,0,0,1-3.1-1.23,5.2,5.2,0,0,1-1.07-3.53,5.75,5.75,0,0,1,.53-2.54,3.81,3.81,0,0,1,1.51-1.67,4.48,4.48,0,0,1,2.31-.58,6.24,6.24,0,0,1,2.72.65l-.63,1.6a10.51,10.51,0,0,0-1-.43A3.12,3.12,0,0,0,32.1,128.49Z"/><path class="cls-3" d="M39.72,132.7v3.56h-2V127h2.7a4.63,4.63,0,0,1,2.8.69,2.75,2.75,0,0,1,.46,3.55,3,3,0,0,1-1.28,1q2.09,3.13,2.73,4H43l-2.21-3.56Zm0-1.6h.63a2.43,2.43,0,0,0,1.38-.31,1.11,1.11,0,0,0,.44-1,1,1,0,0,0-.45-.94,2.75,2.75,0,0,0-1.41-.28h-.6Z"/><path class="cls-3" d="M56.07,131.61a5,5,0,0,1-1.14,3.54,4.23,4.23,0,0,1-3.28,1.24,4.23,4.23,0,0,1-3.28-1.24,6.06,6.06,0,0,1,0-7.09,4.28,4.28,0,0,1,3.28-1.22,4.23,4.23,0,0,1,3.27,1.23A5,5,0,0,1,56.07,131.61Zm-6.77,0a3.88,3.88,0,0,0,.59,2.34,2.07,2.07,0,0,0,1.77.79q2.35,0,2.35-3.13t-2.34-3.14a2.08,2.08,0,0,0-1.77.79A3.86,3.86,0,0,0,49.3,131.61Z"/><path class="cls-3" d="M68.35,136.26H66.11l-1.26-4.87q-.07-.26-.24-1.08a10.73,10.73,0,0,1-.19-1.09,5.18,5.18,0,0,1-.19,1.1A10.59,10.59,0,0,0,64,131.4l-1.25,4.86H60.51L58.14,127h1.94l1.18,5q.31,1.4.45,2.43a5.75,5.75,0,0,1,.17-1.12l.26-1.18L63.5,127h1.86l1.35,5.2q.09.35.22,1.07t.2,1.23q.06-.5.2-1.24t.25-1.2L68.77,127h1.94Z"/><path class="cls-3" d="M80.89,131.54a4.57,4.57,0,0,1-1.3,3.51,5.32,5.32,0,0,1-3.77,1.22H73.19V127H76.1a4.9,4.9,0,0,1,3.53,1.2A4.41,4.41,0,0,1,80.89,131.54Zm-2,.05q0-3-2.64-3h-1v6H76q2.85.05,2.85-3Z"/><path class="cls-3" d="M94.11,127h2l-3.16,9.28H90.8L87.65,127h2l1.75,5.52q.15.49.3,1.14t.19.9a16.35,16.35,0,0,1,.48-2Z"/><path class="cls-3" d="M98.58,136.26V127h2v9.28Z"/><path class="cls-3" d="M109.54,136.26H104.2V127h5.34v1.61h-3.38v2h3.14v1.61h-3.14v2.39h3.38Z"/><path class="cls-3" d="M121.83,136.26h-2.24l-1.26-4.87q-.07-.26-.24-1.08a10.74,10.74,0,0,1-.19-1.09,5.18,5.18,0,0,1-.19,1.1q-.19.76-.24,1.08l-1.25,4.86H114L111.62,127h1.94l1.19,5.07q.31,1.4.45,2.43a5.75,5.75,0,0,1,.17-1.12l.26-1.18L117,127h1.86l1.35,5.2q.09.35.22,1.07t.2,1.23q.06-.5.2-1.24t.25-1.2l1.18-5.07h1.94Z"/></g></g></g></g></svg>