<svg id="Layer_1" data-name="Layer 1" xmlns="http://www.w3.org/2000/svg" viewBox="0 0 128 128"><defs><style>.cls-1{fill:#dc4a94;}.cls-2{fill:#29235c;}.cls-3{fill:#fff;}</style></defs><title>cam_icon_stage</title><g id="Layer_2" data-name="Layer 2"><g id="Layer_1-2" data-name="Layer 1-2"><g id="Layer_2-2" data-name="Layer 2-2"><g id="Layer_1-2-2" data-name="Layer 1-2-2"><rect class="cls-1" width="128" height="128" rx="16.74" ry="16.74"/><rect class="cls-2" x="10.34" y="22.16" width="108.34" height="78.08" rx="12.48" ry="12.48"/><rect class="cls-2" x="44.62" y="12.21" width="39.15" height="39.15" rx="6.43" ry="6.43"/><circle class="cls-1" cx="64.78" cy="61.09" r="34.6"/><circle class="cls-2" cx="64.58" cy="61.17" r="31.07"/><circle class="cls-1" cx="79.86" cy="41.8" r="6.83"/><circle class="cls-1" cx="68.21" cy="53.34" r="10.32"/><circle class="cls-1" cx="79.6" cy="42.17" r="6.83"/><rect class="cls-1" x="48.41" y="14.96" width="9.74" height="6.77" rx="3.38" ry="3.38"/><path class="cls-3" d="M29.88,115.75a2.07,2.07,0,0,1-.78,1.72,3.39,3.39,0,0,1-2.17.62,5.11,5.11,0,0,1-2.27-.48V116a9.23,9.23,0,0,0,1.37.51,4,4,0,0,0,1,.15,1.45,1.45,0,0,0,.86-.22.73.73,0,0,0,.3-.64.7.7,0,0,0-.13-.42,1.47,1.47,0,0,0-.39-.35,10,10,0,0,0-1-.54,4.89,4.89,0,0,1-1.1-.66,2.48,2.48,0,0,1-.59-.74,2.1,2.1,0,0,1-.22-1,2.07,2.07,0,0,1,.72-1.67,3,3,0,0,1,2-.61,4.7,4.7,0,0,1,1.19.15,8.25,8.25,0,0,1,1.18.41l-.51,1.32a7.93,7.93,0,0,0-1.06-.36,3.45,3.45,0,0,0-.86-.1,1.1,1.1,0,0,0-.74.22.74.74,0,0,0-.26.59.72.72,0,0,0,.1.39,1.16,1.16,0,0,0,.33.33,10.35,10.35,0,0,0,1.08.56,4.31,4.31,0,0,1,1.54,1.08A2.1,2.1,0,0,1,29.88,115.75Z" transform="translate(0 -0.45)"/><path class="cls-3" d="M35.54,118H33.82v-6.59H31.67V110h6v1.41H35.54Z" transform="translate(0 -0.45)"/><path class="cls-3" d="M45,118,44.4,116H41.49l-.58,1.91H39.07l2.83-8H44l2.84,8Zm-1-3.33-.86-2.93c-.07-.22-.11-.41-.15-.53q-.18.7-1,3.45Z" transform="translate(0 -0.45)"/><path class="cls-3" d="M52,113.47H55.2v4.15a8.92,8.92,0,0,1-1.46.35,9.49,9.49,0,0,1-1.4.1A3.53,3.53,0,0,1,49.58,117a4.43,4.43,0,0,1-1-3.05,4,4,0,0,1,1.11-3,4.21,4.21,0,0,1,3.07-1.09,5.94,5.94,0,0,1,2.37.49l-.59,1.35a4,4,0,0,0-1.82-.44A2.25,2.25,0,0,0,51,112a2.86,2.86,0,0,0-.66,2,3.19,3.19,0,0,0,.51,2,1.85,1.85,0,0,0,1.55.69,5.47,5.47,0,0,0,1.08-.11v-1.67H52Z" transform="translate(0 -0.45)"/><path class="cls-3" d="M62.81,118H58.2v-8h4.61v1.39H59.9v1.72h2.71v1.39H59.9v2.06h2.92Z" transform="translate(0 -0.45)"/><path class="cls-3" d="M74.22,110h1.72l-2.73,8H71.37l-2.72-8h1.72l1.51,4.76q.13.42.26,1t.16.78a14.1,14.1,0,0,1,.41-1.72Z" transform="translate(0 -0.45)"/><path class="cls-3" d="M78.08,118v-8H79.8v8Z" transform="translate(0 -0.45)"/><path class="cls-3" d="M87.53,118H82.92v-8h4.61v1.39H84.62v1.72h2.71v1.39H84.62v2.06h2.92Z" transform="translate(0 -0.45)"/><path class="cls-3" d="M98.13,118H96.2l-1.09-4.2q-.06-.22-.21-.93a9.25,9.25,0,0,1-.16-.94,4.47,4.47,0,0,1-.16.95q-.16.66-.21.93L93.29,118H91.37l-2-8H91l1,4.37q.27,1.21.39,2.1a5,5,0,0,1,.15-1l.22-1L93.95,110h1.6l1.16,4.48q.08.3.19.92t.17,1.06q.05-.43.17-1.07l.21-1.09,1-4.31h1.67Z" transform="translate(0 -0.45)"/></g></g></g></g></svg>