<svg id="Layer_1" data-name="Layer 1" xmlns="http://www.w3.org/2000/svg" viewBox="0 0 128 128">
    <defs>
        <style>.cls-1{fill:#009fe3;}.cls-2{fill:#29235c;}.cls-3{fill:#fff;}</style>
    </defs>
    <title>cam_icon_crowd</title>
    <g id="Layer_2" data-name="Layer 2">
        <g id="Layer_1-2" data-name="Layer 1-2">
            <g id="Layer_2-2" data-name="Layer 2-2">
                <g id="Layer_1-2-2" data-name="Layer 1-2-2">
                    <rect class="cls-1" width="128" height="128" rx="16.74" ry="16.74"/>
                    <rect class="cls-2" x="10.34" y="22.16" width="108.34" height="78.08" rx="12.48" ry="12.48"/>
                    <rect class="cls-2" x="44.62" y="12.21" width="39.15" height="39.15" rx="6.43" ry="6.43"/>
                    <circle class="cls-1" cx="64.78" cy="61.09" r="34.6"/>
                    <circle class="cls-2" cx="64.58" cy="61.17" r="31.07"/>
                    <circle class="cls-1" cx="68.47" cy="52.98" r="10.32"/>
                    <circle class="cls-1" cx="79.86" cy="41.8" r="6.83"/>
                    <rect class="cls-1" x="48.41" y="14.96" width="9.74" height="6.77" rx="3.38" ry="3.38"/>
                    <path class="cls-3"
                          d="M27.69,110.82a1.72,1.72,0,0,0-1.48.72,3.35,3.35,0,0,0-.53,2q0,2.68,2,2.67a6.35,6.35,0,0,0,2-.42v1.42a5.66,5.66,0,0,1-2.2.41,3.36,3.36,0,0,1-2.67-1.06,4.48,4.48,0,0,1-.92-3,5,5,0,0,1,.46-2.19,3.29,3.29,0,0,1,1.3-1.44,3.86,3.86,0,0,1,2-.5A5.38,5.38,0,0,1,30,110l-.54,1.38a9.06,9.06,0,0,0-.86-.37A2.69,2.69,0,0,0,27.69,110.82Z"/>
                    <path class="cls-3"
                          d="M34.26,114.45v3.07H32.53v-8h2.33a4,4,0,0,1,2.41.6,2.37,2.37,0,0,1,.4,3.06,2.59,2.59,0,0,1-1.1.86q1.8,2.7,2.35,3.45H37.09l-1.91-3.07Zm0-1.38h.54A2.1,2.1,0,0,0,36,112.8a1,1,0,0,0,.38-.86.86.86,0,0,0-.39-.81,2.37,2.37,0,0,0-1.22-.24h-.52Z"/>
                    <path class="cls-3"
                          d="M48.36,113.51a4.31,4.31,0,0,1-1,3.05,3.65,3.65,0,0,1-2.83,1.07,3.65,3.65,0,0,1-2.83-1.07,5.23,5.23,0,0,1,0-6.11,3.69,3.69,0,0,1,2.83-1.05,3.65,3.65,0,0,1,2.82,1.06A4.31,4.31,0,0,1,48.36,113.51Zm-5.84,0a3.35,3.35,0,0,0,.51,2,1.79,1.79,0,0,0,1.53.68q2,0,2-2.7t-2-2.71a1.79,1.79,0,0,0-1.53.68A3.33,3.33,0,0,0,42.52,113.51Z"/>
                    <path class="cls-3"
                          d="M59,117.52H57l-1.09-4.2q-.06-.22-.21-.93a9.25,9.25,0,0,1-.16-.94,4.47,4.47,0,0,1-.16.95,9.13,9.13,0,0,0-.2.93l-1.08,4.19H52.19l-2-8h1.67l1,4.31q.27,1.21.39,2.1a5,5,0,0,1,.15-1l.22-1,1.17-4.42h1.6L57.54,114q.08.3.19.92T57.9,116q.05-.43.17-1.07t.22-1l1-4.36H61Z"/>
                    <path class="cls-3"
                          d="M69.77,113.45a3.94,3.94,0,0,1-1.12,3,4.59,4.59,0,0,1-3.25,1.05H63.12v-8h2.51a4.23,4.23,0,0,1,3,1A3.8,3.8,0,0,1,69.77,113.45Zm-1.72,0q0-2.59-2.28-2.59H64.9v5.17h.65q2.46,0,2.46-2.59Z"/>
                    <path class="cls-3"
                          d="M81.17,109.53h1.72l-2.73,8H78.31l-2.72-8h1.72l1.51,4.76q.13.42.26,1t.16.78a14.1,14.1,0,0,1,.41-1.72Z"/>
                    <path class="cls-3" d="M85,117.52v-8h1.72v8Z"/>
                    <path class="cls-3" d="M94.48,117.52H89.87v-8h4.61v1.39H91.56v1.72h2.71V114H91.56v2.06h2.92Z"/>
                    <path class="cls-3"
                          d="M105.08,117.52h-1.93l-1.09-4.2q-.06-.22-.21-.93a9.26,9.26,0,0,1-.16-.94,4.47,4.47,0,0,1-.16.95q-.16.66-.21.93l-1.08,4.19H98.32l-2.05-8h1.67l1,4.37q.27,1.21.39,2.1a5,5,0,0,1,.15-1l.22-1,1.18-4.48h1.6l1.16,4.48q.08.3.19.92T104,116q.05-.43.17-1.07t.22-1l1-4.37h1.67Z"/>
                </g>
            </g>
        </g>
    </g>
</svg>